<?xml version="1.0" encoding="UTF-8"?>
<svg xmlns="http://www.w3.org/2000/svg" xmlns:xlink="http://www.w3.org/1999/xlink" width="50px" height="50px" viewBox="0 0 50 50" version="1.1">
<g id="surface1">
<path style=" stroke:none;fill-rule:nonzero;fill:rgb(0%,0%,0%);fill-opacity:1;" d="M 29.722656 7.226562 C 29.359375 7.320312 29.125 7.492188 28.4375 8.164062 L 27.738281 8.847656 L 27.507812 8.8125 C 27.386719 8.796875 27.25 8.773438 27.207031 8.765625 C 27.15625 8.757812 26.871094 8.703125 26.5625 8.640625 C 25.960938 8.53125 25.761719 8.492188 23.964844 8.105469 C 22.59375 7.8125 22.367188 7.804688 22.167969 8.003906 C 21.996094 8.171875 21.945312 8.355469 22 8.589844 C 22.039062 8.746094 22.09375 8.789062 22.507812 9.027344 C 22.765625 9.171875 23.492188 9.554688 24.121094 9.878906 C 24.75 10.199219 25.371094 10.527344 25.503906 10.601562 C 25.628906 10.679688 25.757812 10.742188 25.78125 10.742188 C 25.8125 10.742188 25.828125 10.757812 25.828125 10.777344 C 25.824219 10.800781 25.53125 11.125 25.175781 11.492188 L 24.527344 12.179688 L 23.832031 12.039062 C 23.265625 11.929688 23.117188 11.914062 23.003906 11.957031 C 22.816406 12.035156 22.714844 12.234375 22.742188 12.464844 C 22.769531 12.671875 22.75 12.65625 23.507812 13.128906 L 24.039062 13.460938 L 24.042969 13.796875 C 24.046875 14.121094 24.054688 14.136719 24.21875 14.25 C 24.390625 14.367188 24.554688 14.371094 24.878906 14.28125 C 24.964844 14.257812 25.015625 14.332031 25.253906 14.828125 C 25.460938 15.269531 25.5625 15.425781 25.660156 15.46875 C 25.917969 15.585938 26.164062 15.507812 26.292969 15.265625 C 26.382812 15.097656 26.382812 15.078125 26.269531 14.066406 L 26.207031 13.511719 L 26.734375 13.003906 C 27.023438 12.726562 27.265625 12.503906 27.269531 12.507812 C 27.304688 12.542969 28.375 14.917969 28.570312 15.382812 C 28.679688 15.664062 28.84375 15.957031 28.914062 16.035156 C 29.042969 16.164062 29.082031 16.171875 29.304688 16.152344 C 29.511719 16.132812 29.585938 16.097656 29.695312 15.972656 C 29.859375 15.789062 29.875 15.59375 29.761719 14.769531 C 29.667969 14.046875 29.566406 13.144531 29.417969 11.765625 L 29.300781 10.621094 L 29.859375 10.09375 C 30.46875 9.515625 30.8125 9.097656 30.996094 8.695312 C 31.148438 8.363281 31.128906 7.96875 30.9375 7.648438 C 30.726562 7.289062 30.203125 7.109375 29.722656 7.226562 Z M 29.449219 8.714844 C 29.613281 8.804688 29.710938 9 29.644531 9.121094 C 29.589844 9.21875 28.277344 10.515625 26.699219 12.027344 C 26.0625 12.636719 25.523438 13.121094 25.421875 13.160156 C 25.265625 13.226562 25 13.261719 25 13.210938 C 25 13.203125 25.019531 13.085938 25.046875 12.945312 C 25.09375 12.703125 25.136719 12.652344 25.9375 11.832031 C 28.265625 9.449219 29.09375 8.640625 29.195312 8.640625 C 29.253906 8.640625 29.367188 8.675781 29.449219 8.714844 Z M 29.449219 8.714844 "/>
<path style=" stroke:none;fill-rule:nonzero;fill:rgb(0%,0%,0%);fill-opacity:1;" d="M 20.898438 10.1875 C 20.203125 10.371094 19.09375 10.75 18.441406 11.023438 C 16.398438 11.894531 14.210938 13.601562 12.734375 15.492188 C 11.875 16.59375 11.023438 17.988281 10.527344 19.132812 C 10.273438 19.710938 9.878906 20.890625 9.691406 21.632812 C 9.214844 23.523438 9.140625 25.894531 9.496094 28.199219 C 9.640625 29.140625 10.007812 30.585938 10.230469 31.078125 C 10.269531 31.15625 10.375 31.421875 10.472656 31.664062 C 10.742188 32.320312 11.324219 33.460938 11.671875 34.015625 C 12.441406 35.242188 13.078125 36.023438 14.097656 37.011719 C 15.738281 38.601562 17.515625 39.722656 19.679688 40.523438 C 20.058594 40.664062 21.3125 41 21.871094 41.113281 C 23.070312 41.359375 23.664062 41.421875 24.878906 41.414062 C 26.25 41.414062 26.765625 41.367188 27.910156 41.136719 C 29.546875 40.804688 31.28125 40.195312 32.390625 39.566406 C 33.679688 38.828125 34.136719 38.515625 35.15625 37.640625 C 36.136719 36.804688 37.039062 35.800781 37.765625 34.746094 C 38.914062 33.066406 39.644531 31.519531 40.085938 29.800781 C 40.566406 27.964844 40.703125 26.804688 40.660156 25.007812 C 40.628906 23.804688 40.550781 23.085938 40.382812 22.339844 C 40.328125 22.09375 40.25 21.765625 40.214844 21.601562 C 40.175781 21.4375 40.121094 21.230469 40.09375 21.136719 C 40.0625 21.046875 39.953125 20.707031 39.847656 20.386719 C 38.964844 17.652344 37.089844 14.921875 34.820312 13.0625 C 33.632812 12.09375 31.851562 10.984375 31.464844 10.984375 C 31.382812 10.984375 31.214844 11.019531 31.089844 11.0625 C 30.914062 11.125 30.828125 11.191406 30.710938 11.367188 C 30.578125 11.566406 30.5625 11.625 30.585938 11.835938 C 30.628906 12.226562 30.683594 12.273438 31.882812 13.015625 C 32.675781 13.507812 33.367188 14 33.789062 14.371094 C 35 15.445312 36.171875 16.78125 36.875 17.894531 C 37.125 18.289062 37.59375 19.214844 37.816406 19.75 C 37.914062 19.992188 38.027344 20.253906 38.0625 20.335938 C 38.265625 20.824219 38.578125 21.800781 38.648438 22.171875 C 38.664062 22.234375 38.691406 22.402344 38.71875 22.539062 C 38.75 22.675781 38.785156 22.851562 38.796875 22.929688 C 38.8125 23.007812 38.832031 23.105469 38.84375 23.144531 C 38.890625 23.3125 39.015625 24.90625 39.015625 25.394531 C 39.015625 27.585938 38.523438 29.734375 37.574219 31.714844 C 36.640625 33.664062 35.570312 35.046875 33.835938 36.578125 C 33.148438 37.183594 31.933594 37.953125 30.882812 38.453125 C 29.75 38.992188 28.132812 39.460938 26.683594 39.667969 C 26.019531 39.765625 23.640625 39.742188 23.046875 39.632812 C 22.304688 39.496094 21.367188 39.304688 21.242188 39.257812 C 21.171875 39.238281 20.878906 39.144531 20.582031 39.058594 C 19.570312 38.757812 18.726562 38.378906 17.773438 37.792969 C 15.433594 36.347656 13.714844 34.488281 12.5 32.085938 C 12.09375 31.285156 11.546875 29.839844 11.453125 29.335938 C 11.445312 29.261719 11.421875 29.179688 11.40625 29.15625 C 11.363281 29.082031 11.191406 28.21875 11.085938 27.523438 C 10.777344 25.507812 10.867188 23.71875 11.386719 21.800781 C 11.8125 20.21875 12.191406 19.335938 13.011719 18.027344 C 13.84375 16.703125 14.882812 15.488281 16 14.527344 C 17.523438 13.210938 19.0625 12.40625 21.054688 11.867188 C 21.960938 11.617188 22.117188 11.53125 22.261719 11.191406 C 22.347656 10.984375 22.300781 10.585938 22.171875 10.40625 C 21.921875 10.058594 21.585938 10 20.898438 10.1875 Z M 20.898438 10.1875 "/>
<path style=" stroke:none;fill-rule:nonzero;fill:rgb(0%,0%,0%);fill-opacity:1;" d="M 20.945312 13.433594 C 20.800781 13.484375 20.660156 13.539062 20.628906 13.546875 C 20.605469 13.554688 20.546875 13.574219 20.507812 13.589844 C 20.46875 13.601562 20.179688 13.710938 19.875 13.824219 C 19.070312 14.109375 18.128906 14.617188 17.496094 15.101562 C 17.347656 15.214844 17.167969 15.347656 17.09375 15.390625 C 16.660156 15.679688 15.414062 16.972656 14.839844 17.742188 C 13.9375 18.949219 13.160156 20.617188 12.699219 22.339844 C 12.414062 23.414062 12.347656 23.863281 12.320312 25.074219 C 12.289062 26.242188 12.34375 27.113281 12.5 27.910156 C 12.546875 28.171875 12.609375 28.472656 12.621094 28.5625 C 12.726562 29.1875 13.285156 30.726562 13.71875 31.585938 C 14.171875 32.484375 15.03125 33.804688 15.242188 33.9375 C 15.539062 34.109375 15.933594 34.03125 16.171875 33.746094 C 16.292969 33.601562 16.453125 33.164062 16.453125 32.972656 C 16.453125 32.925781 16.265625 32.609375 16.035156 32.273438 C 15.117188 30.933594 14.664062 29.90625 14.28125 28.320312 C 14.097656 27.539062 14.015625 26.90625 13.980469 26.074219 C 13.90625 24.023438 14.304688 22.15625 15.21875 20.3125 C 15.746094 19.238281 16.304688 18.460938 17.113281 17.652344 C 18.414062 16.359375 19.570312 15.628906 21.191406 15.085938 C 21.601562 14.953125 21.996094 14.800781 22.070312 14.746094 C 22.480469 14.453125 22.414062 13.703125 21.949219 13.441406 C 21.699219 13.300781 21.3125 13.296875 20.945312 13.433594 Z M 20.945312 13.433594 "/>
<path style=" stroke:none;fill-rule:nonzero;fill:rgb(0%,0%,0%);fill-opacity:1;" d="M 31.214844 14.648438 C 30.6875 15.039062 30.789062 15.796875 31.410156 16.0625 C 31.699219 16.191406 31.90625 16.164062 32.183594 15.957031 C 32.519531 15.710938 32.617188 15.320312 32.425781 14.953125 C 32.28125 14.664062 32.070312 14.53125 31.714844 14.511719 C 31.449219 14.496094 31.402344 14.507812 31.214844 14.648438 Z M 31.214844 14.648438 "/>
<path style=" stroke:none;fill-rule:nonzero;fill:rgb(0%,0%,0%);fill-opacity:1;" d="M 31.777344 17.726562 C 31.210938 17.820312 30.414062 18.421875 30.113281 18.988281 C 29.953125 19.28125 29.785156 19.902344 29.785156 20.210938 C 29.785156 20.335938 29.820312 20.570312 29.863281 20.726562 C 29.90625 20.890625 29.953125 21.0625 29.960938 21.117188 C 29.976562 21.191406 29.847656 21.328125 29.4375 21.679688 C 28.859375 22.183594 27.457031 23.585938 26.828125 24.292969 C 25.90625 25.332031 24.707031 26.898438 23.734375 28.335938 C 23.535156 28.625 23.359375 28.859375 23.339844 28.847656 C 23.320312 28.835938 23.007812 28.5 22.640625 28.09375 C 21.898438 27.269531 21.75 27.167969 21.34375 27.207031 C 20.863281 27.257812 20.554688 27.578125 20.554688 28.03125 C 20.554688 28.335938 20.664062 28.507812 21.234375 29.136719 C 21.523438 29.453125 21.917969 29.902344 22.117188 30.132812 C 22.320312 30.359375 22.75 30.835938 23.070312 31.1875 L 23.652344 31.820312 L 23.804688 31.570312 C 23.890625 31.4375 24.140625 31.035156 24.359375 30.6875 C 24.730469 30.101562 24.914062 29.84375 25.785156 28.640625 C 26.410156 27.777344 27.660156 26.25 28.320312 25.546875 C 29.125 24.683594 30.671875 23.148438 31.078125 22.8125 L 31.371094 22.574219 L 31.542969 22.652344 C 31.796875 22.765625 32.804688 22.757812 33.140625 22.640625 C 34.359375 22.21875 35.082031 20.894531 34.789062 19.640625 C 34.570312 18.707031 33.890625 18.011719 32.964844 17.773438 C 32.621094 17.679688 32.132812 17.660156 31.777344 17.726562 Z M 32.632812 19.332031 C 32.828125 19.410156 33.117188 19.6875 33.207031 19.898438 C 33.445312 20.421875 33.15625 20.984375 32.574219 21.140625 C 31.871094 21.328125 31.25 20.695312 31.441406 19.984375 C 31.578125 19.472656 32.164062 19.15625 32.632812 19.332031 Z M 32.632812 19.332031 "/>
<path style=" stroke:none;fill-rule:nonzero;fill:rgb(0%,0%,0%);fill-opacity:1;" d="M 20.191406 18.21875 C 19.808594 18.265625 19.125 18.507812 18.824219 18.691406 C 18.164062 19.105469 17.695312 19.726562 17.398438 20.582031 C 17.320312 20.804688 17.308594 21.25 17.300781 26.464844 C 17.285156 32.617188 17.273438 32.367188 17.5625 33.03125 C 17.992188 34.007812 18.71875 34.664062 19.785156 35.023438 L 20.238281 35.179688 L 24.585938 35.195312 C 27.6875 35.203125 29.007812 35.195312 29.199219 35.15625 C 30.5 34.886719 31.390625 34.203125 31.914062 33.082031 C 32.226562 32.402344 32.226562 32.417969 32.226562 27.953125 C 32.226562 25.738281 32.210938 23.925781 32.195312 23.925781 C 32.148438 23.925781 31.933594 24.109375 31.242188 24.742188 L 30.566406 25.355469 L 30.566406 32.132812 L 30.4375 32.402344 C 30.253906 32.792969 29.90625 33.125 29.457031 33.339844 L 29.078125 33.519531 L 25.023438 33.535156 C 20.625 33.550781 20.394531 33.539062 19.921875 33.300781 C 19.378906 33.027344 19 32.480469 18.898438 31.835938 C 18.867188 31.632812 18.847656 29.683594 18.851562 26.441406 L 18.851562 21.363281 L 18.964844 21.039062 C 19.09375 20.660156 19.351562 20.316406 19.652344 20.136719 C 20.109375 19.875 20.058594 19.875 24.394531 19.875 L 28.40625 19.875 L 28.484375 19.703125 C 28.53125 19.609375 28.664062 19.304688 28.78125 19.03125 C 28.898438 18.753906 29.027344 18.445312 29.070312 18.34375 L 29.148438 18.164062 L 24.84375 18.167969 C 22.46875 18.171875 20.382812 18.195312 20.191406 18.21875 Z M 20.191406 18.21875 "/>
<path style=" stroke:none;fill-rule:nonzero;fill:rgb(0%,0%,0%);fill-opacity:1;" d="M 36.125 21.304688 C 35.929688 21.390625 35.738281 21.582031 35.664062 21.761719 C 35.550781 22.023438 35.570312 22.195312 35.816406 23.21875 C 36.023438 24.097656 36.074219 25.566406 35.933594 26.832031 C 35.746094 28.519531 35.035156 30.351562 33.867188 32.15625 C 33.421875 32.84375 33.40625 32.933594 33.671875 33.476562 C 33.886719 33.921875 34.046875 34.023438 34.511719 33.992188 C 34.628906 33.984375 34.945312 33.679688 35.0625 33.46875 C 35.101562 33.394531 35.269531 33.125 35.4375 32.867188 C 35.824219 32.28125 36.410156 31.132812 36.703125 30.386719 C 36.828125 30.070312 36.929688 29.789062 36.933594 29.761719 C 36.9375 29.734375 37.007812 29.511719 37.078125 29.273438 C 37.257812 28.714844 37.417969 27.945312 37.542969 27.085938 C 37.71875 25.902344 37.664062 24.007812 37.425781 22.898438 C 37.230469 21.988281 37.195312 21.839844 37.125 21.6875 C 36.957031 21.335938 36.460938 21.148438 36.125 21.304688 Z M 36.125 21.304688 "/>
<path style=" stroke:none;fill-rule:nonzero;fill:rgb(0%,0%,0%);fill-opacity:1;" d="M 20.308594 21.402344 C 20.085938 21.542969 19.917969 21.882812 19.957031 22.089844 C 20.007812 22.347656 20.191406 22.585938 20.40625 22.675781 C 20.585938 22.742188 20.921875 22.753906 23.339844 22.753906 L 26.070312 22.753906 L 26.1875 22.640625 C 26.25 22.582031 26.5625 22.257812 26.875 21.910156 L 27.445312 21.289062 L 20.472656 21.289062 Z M 20.308594 21.402344 "/>
<path style=" stroke:none;fill-rule:nonzero;fill:rgb(0%,0%,0%);fill-opacity:1;" d="M 20.332031 24.242188 C 19.851562 24.53125 19.851562 25.15625 20.328125 25.507812 C 20.460938 25.605469 20.527344 25.609375 22.1875 25.625 L 23.90625 25.640625 L 24.496094 25.039062 C 24.824219 24.707031 25.148438 24.367188 25.21875 24.277344 L 25.351562 24.121094 L 20.53125 24.121094 Z M 20.332031 24.242188 "/>
<path style=" stroke:none;fill-rule:nonzero;fill:rgb(0%,0%,0%);fill-opacity:1;" d="M 28.246094 27.65625 C 28.09375 27.71875 27.765625 28.082031 27.324219 28.65625 L 27.085938 28.964844 L 27.8125 28.945312 C 28.640625 28.925781 28.832031 28.867188 29.007812 28.578125 C 29.1875 28.289062 29.042969 27.8125 28.730469 27.660156 C 28.539062 27.574219 28.441406 27.574219 28.246094 27.65625 Z M 28.246094 27.65625 "/>
<path style=" stroke:none;fill-rule:nonzero;fill:rgb(0%,0%,0%);fill-opacity:1;" d="M 20.28125 30.835938 C 19.804688 31.125 19.808594 31.804688 20.292969 32.089844 C 20.410156 32.15625 20.59375 32.171875 21.324219 32.1875 L 22.210938 32.203125 L 22.132812 32.078125 C 22.023438 31.90625 21.375 31.15625 21.1875 30.972656 C 20.882812 30.683594 20.601562 30.644531 20.28125 30.835938 Z M 20.28125 30.835938 "/>
<path style=" stroke:none;fill-rule:nonzero;fill:rgb(0%,0%,0%);fill-opacity:1;" d="M 25.308594 31.257812 C 24.804688 31.898438 24.609375 32.152344 24.609375 32.183594 C 24.609375 32.230469 28.398438 32.167969 28.519531 32.125 C 28.59375 32.09375 28.714844 32.007812 28.789062 31.929688 C 28.914062 31.796875 28.929688 31.742188 28.929688 31.480469 C 28.929688 31.242188 28.90625 31.140625 28.8125 31.011719 C 28.613281 30.726562 28.515625 30.710938 27.0625 30.710938 L 25.746094 30.710938 Z M 25.308594 31.257812 "/>
<path style=" stroke:none;fill-rule:nonzero;fill:rgb(0%,0%,0%);fill-opacity:1;" d="M 31.421875 34.867188 C 31.335938 34.890625 31.074219 35.03125 30.835938 35.179688 C 29.601562 35.945312 28.179688 36.460938 26.5625 36.722656 C 26.148438 36.792969 25.746094 36.816406 25.035156 36.816406 C 23.601562 36.816406 22.960938 36.726562 21.5625 36.347656 C 20.453125 36.039062 19.761719 35.738281 19.027344 35.242188 C 18.445312 34.847656 18.046875 34.78125 17.726562 35.019531 C 17.414062 35.25 17.285156 35.78125 17.464844 36.097656 C 17.640625 36.40625 18.910156 37.140625 20.042969 37.585938 C 20.464844 37.753906 20.980469 37.925781 21.101562 37.9375 C 21.125 37.9375 21.226562 37.972656 21.324219 38.007812 C 21.503906 38.070312 22.417969 38.25 23.21875 38.390625 C 23.746094 38.476562 26.007812 38.472656 26.539062 38.382812 C 27.261719 38.265625 28.597656 37.945312 29.1875 37.742188 C 29.804688 37.539062 30.679688 37.15625 31.109375 36.910156 C 31.308594 36.796875 31.609375 36.625 31.78125 36.53125 C 32.144531 36.335938 32.457031 36.046875 32.5 35.859375 C 32.554688 35.65625 32.4375 35.234375 32.285156 35.097656 C 32.007812 34.839844 31.753906 34.769531 31.421875 34.867188 Z M 31.421875 34.867188 "/>
</g>
</svg>
